<svg id="svg" xmlns="http://www.w3.org/2000/svg" viewbox="-1.4200000762939453,3.3299999237060547,550,445.6700134277344" style="height:445.6700134277344"><path d="M 216.58,101.33" fill="none" stroke="#6190e8" stroke-width="2"></path>  <path d="M 268.58,133.33 L 267.92,133" fill="none" stroke="#6190e8" stroke-width="2"></path><path d="M 53.25,48 L 53.25,50.33 L 51.92,55.67 L 50.58,68.33 L 49.25,77.67 L 49.25,91 L 49.25,102.33 L 49.25,109 L 49.25,111 L 49.25,111.67 L 48.58,111.67" fill="none" stroke="#6190e8" stroke-width="2"></path><path d="M 45.25,49.33 L 47.25,48.33 L 49.92,48.33 L 63.92,48.33 L 90.58,48.33 L 155.92,48.33 L 215.92,48.33 L 270.58,48.33 L 306.58,48.33 L 331.92,48.33 L 351.92,48.33 L 366.58,48.33 L 379.92,48.33 L 390.58,48.33 L 404.58,47.67 L 415.92,45.67 L 510.58,43.67 L 511.25,43.67 L 513.92,43.67 L 517.92,43.67 L 524.58,43.67 L 531.25,43.67 L 532.58,43.67 L 533.92,43.67 L 534.58,45 L 535.92,53.67 L 537.25,66.33 L 538.58,80.33 L 538.58,95 L 538.58,107 L 538.58,115.67 L 538.58,121.67 L 538.58,125 L 538.58,125.67 L 538.58,126.33 L 538.58,127 L 536.58,127 L 528.58,127 L 511.25,127 L 483.92,127 L 443.92,127 L 394.58,127 L 347.92,127 L 307.25,127 L 268.58,127 L 230.58,127 L 184.58,127 L 155.92,127 L 130.58,127 L 103.92,128.33 L 79.92,131.67 L 59.92,133.67 L 45.92,135 L 36.58,135 L 33.25,135 L 32.58,135 L 32.58,133.67 L 32.58,131.67 L 33.25,127 L 33.92,121 L 35.92,113.67 L 36.58,108.33 L 36.58,107.67" fill="none" stroke="#6190e8" stroke-width="2"></path><path d="M 72.58,74 L 72.58,77 L 71.92,88.33 L 69.92,99.67 L 68.58,108.33 L 68.58,113.67 L 68.58,115 L 69.25,114.33" fill="none" stroke="#6190e8" stroke-width="2"></path><path d="M 83.92,84 L 83.92,84.33 L 82.58,86.33 L 81.25,88.33 L 79.25,96.33 L 77.25,102.33 L 77.25,106.33 L 79.25,108.33 L 82.58,109.67 L 85.92,109.67 L 90.58,106.33 L 93.92,101 L 95.25,95 L 95.25,90.33 L 93.92,85 L 88.58,82.33 L 84.58,79.67 L 83.92,79 L 83.92,79.67 L 83.92,82.33 L 83.92,85.67" fill="none" stroke="#6190e8" stroke-width="2"></path><path d="M 109.25,46 L 109.92,46.33 L 111.25,55 L 113.25,71.67 L 113.25,91.67 L 113.25,115 L 113.25,136.33 L 113.25,150.33 L 113.25,154.33 L 113.92,153 L 113.92,149 L 113.92,145.67 L 114.58,143.67" fill="none" stroke="#6190e8" stroke-width="2"></path><path d="M 129.92,76 L 130.58,75 L 135.25,75 L 143.92,75 L 145.92,75 L 147.25,77 L 147.25,81 L 147.25,91 L 145.25,105 L 143.25,114.33 L 141.92,123 L 140.58,129.67 L 139.92,132.33 L 139.92,134.33 L 141.25,131 L 141.92,127.67" fill="none" stroke="#6190e8" stroke-width="2"></path><path d="M 172.58,54.67 L 173.92,55 L 175.25,61 L 177.25,75.67 L 177.25,93 L 177.25,110.33 L 177.25,123 L 177.25,126.33 L 177.25,127 L 177.92,127 L 178.58,127 L 184.58,125.67 L 191.25,123.67" fill="none" stroke="#6190e8" stroke-width="2"></path><path d="M 225.92,79.33 L 224.58,79 L 219.25,79 L 211.25,79.67 L 205.25,83 L 203.25,86.33 L 202.58,89.67 L 205.25,94.33 L 208.58,97 L 214.58,100.33 L 223.92,103 L 229.25,105.67 L 230.58,106.33 L 231.25,107 L 231.25,107.67 L 228.58,109 L 225.92,109 L 223.92,109 L 223.92,108.33 L 223.92,98.33 L 229.25,89 L 233.92,79.67 L 236.58,75.67 L 236.58,75 L 236.58,74.33 L 236.58,73.67 L 235.92,73.67 L 235.25,73.67 L 234.58,73.67" fill="none" stroke="#6190e8" stroke-width="2"></path><path d="M 247.25,54 L 247.92,53.67 L 251.25,57 L 255.92,68.33 L 260.58,86.33 L 263.25,103 L 266.58,115 L 267.92,119.67 L 267.92,120.33 L 269.25,119 L 272.58,115.67" fill="none" stroke="#6190e8" stroke-width="2"></path><path d="M 285.25,66 L 279.92,65.67 L 273.92,67 L 271.92,70.33 L 271.25,74.33 L 271.25,81.67 L 272.58,89 L 281.92,94.33 L 293.25,96.33 L 300.58,95 L 303.92,91 L 307.92,84.33 L 309.92,77.67 L 309.92,75.67 L 309.25,76.33 L 308.58,78.33 L 308.58,84.33 L 308.58,95.67 L 308.58,111.67 L 309.92,126.33 L 310.58,135 L 311.92,139.67 L 312.58,137 L 316.58,129 L 320.58,123" fill="none" stroke="#6190e8" stroke-width="2"></path><path d="M 351.92,46 L 351.92,47.67 L 353.25,58.33 L 355.25,72.33 L 357.92,90.33 L 362.58,106.33 L 366.58,127.67 L 367.92,133 L 368.58,132.33 L 369.25,130.33 L 372.58,123.67" fill="none" stroke="#6190e8" stroke-width="2"></path><path d="M 380.58,82 L 380.58,82.33 L 381.92,87.67 L 383.92,93.67 L 385.25,101 L 385.92,107.67 L 387.92,115 L 389.25,124.33 L 390.58,126.33 L 391.25,125.67 L 392.58,121.67" fill="none" stroke="#6190e8" stroke-width="2"></path><path d="M 425.92,47.33 L 426.58,49 L 426.58,51 L 427.92,56.33 L 429.92,69 L 433.25,88.33 L 435.25,99.67 L 437.25,105.67 L 437.25,107.67 L 437.25,108.33 L 438.58,108.33 L 441.25,107.67 L 443.25,107" fill="none" stroke="#6190e8" stroke-width="2"></path><path d="M 483.25,71.33 L 482.58,70.33 L 480.58,70.33 L 468.58,71 L 457.92,72.33 L 457.25,73 L 455.92,73.67 L 455.92,75.67 L 455.92,79.67 L 455.92,85.67 L 455.92,92.33 L 455.92,97.67 L 455.92,99 L 455.92,99.67 L 456.58,99 L 457.92,98.33 L 463.25,95 L 469.92,91 L 475.25,89.67 L 477.92,89.67 L 479.92,89.67 L 481.92,89.67 L 481.92,91.67 L 482.58,94.33 L 480.58,99.67 L 473.92,106.33 L 464.58,111 L 453.25,114.33 L 451.92,114.33" fill="none" stroke="#6190e8" stroke-width="2"></path><path d="M 474.58,142.67 L 474.58,143.67 L 475.92,148.33 L 476.58,156.33 L 476.58,167.67 L 476.58,177 L 476.58,183 L 476.58,185 L 476.58,185.67 L 474.58,181.67 L 469.92,172.33" fill="none" stroke="#6190e8" stroke-width="2"></path><path d="M 462.58,137.33 L 462.58,138.33 L 460.58,146.33 L 459.25,153.67 L 457.92,158.33 L 455.92,161 L 455.92,161.67 L 457.25,161.67 L 459.92,159 L 468.58,148.33 L 476.58,139 L 480.58,134.33 L 482.58,132.33 L 483.92,133.67 L 485.25,137 L 486.58,140.33 L 487.92,145.67 L 487.92,148.33 L 487.92,151 L 487.92,155 L 485.92,158.33 L 485.25,160.33" fill="none" stroke="#6190e8" stroke-width="2"></path><path d="M 489.92,210.67 L 489.92,211 L 489.92,213 L 489.92,219 L 488.58,227.67 L 487.92,231.67 L 485.25,233.67 L 481.92,225 L 479.92,212.33 L 476.58,199.67 L 477.25,190.33 L 480.58,183.67 L 482.58,181 L 483.25,181 L 484.58,181 L 486.58,181.67 L 487.92,184.33 L 487.92,187.67 L 487.92,193.67 L 485.25,202.33 L 481.92,204.33 L 479.92,205.67 L 478.58,205.67 L 477.25,205.67 L 475.25,205.67 L 469.25,205.67 L 463.92,205.67" fill="none" stroke="#6190e8" stroke-width="2"></path><path d="M 20.58,140.67 L 20.58,141.67 L 20.58,145.67 L 20.58,157 L 19.92,170.33 L 17.25,181.67 L 15.92,188.33 L 15.25,192.33 L 14.58,190.33 L 14.58,183.67 L 14.58,173 L 15.25,162.33 L 16.58,153.67 L 19.25,148.33 L 19.92,145 L 19.92,143.67 L 19.92,143 L 19.92,142.33 L 19.92,141 L 19.92,140.33 L 19.25,140.33 L 17.92,140.33 L 14.58,144.33 L 10.58,148.33 L 8.58,149.67 L 8.58,148.33 L 9.92,145.67 L 12.58,143.67 L 17.25,139 L 19.92,137 L 20.58,137 L 21.25,137 L 22.58,137.67 L 23.92,139.67 L 25.25,143 L 25.92,144.33 L 26.58,145 L 26.58,145.67 L 26.58,146.33 L 25.25,148.33 L 24.58,148.33" fill="none" stroke="#6190e8" stroke-width="2"></path><path d="M 17.92,211.33 L 18.58,211.67 L 18.58,212.33 L 19.25,216.33 L 19.25,219.67 L 19.25,223.67 L 19.25,228.33 L 19.25,229 L 19.25,229.67 L 19.92,229.67 L 20.58,229.67 L 25.25,229.67 L 30.58,229.67 L 33.92,229.67 L 35.25,229.67 L 35.92,229.67" fill="none" stroke="#6190e8" stroke-width="2"></path><path d="M 476.58,13.33 L 476.58,15.67 L 476.58,18.33 L 476.58,25.67 L 476.58,31.67 L 475.92,40.33 L 475.25,45.67 L 474.58,49.67 L 473.25,51.67 L 473.25,52.33 L 472.58,52.33 L 471.92,52.33 L 470.58,52.33 L 468.58,51.67 L 466.58,47.67 L 463.25,39 L 462.58,35 L 462.58,32.33 L 462.58,31.67 L 463.92,31.67 L 465.25,32.33 L 467.25,35.67 L 470.58,42.33 L 473.92,50.33 L 475.92,55.67 L 477.25,57.67 L 477.92,57.67 L 481.25,54.33 L 487.25,47.67 L 493.92,41.67 L 498.58,37 L 500.58,35.67" fill="none" stroke="#6190e8" stroke-width="2"></path><path d="M 83.25,138 L 83.25,138.33 L 83.25,139.67 L 83.25,145.67 L 83.25,151.67 L 83.25,157.67 L 84.58,165.67 L 85.25,169 L 85.92,169.67 L 86.58,169.67 L 86.58,171 L 87.25,173.67 L 87.92,176.33 L 87.92,177 L 87.92,180.33 L 87.92,183.67 L 87.92,185.67 L 87.92,187 L 87.92,187.67 L 87.25,187.67 L 85.92,187.67 L 85.25,187 L 83.92,186.33 L 81.92,185 L 80.58,183 L 80.58,181.67 L 79.92,181 L 79.25,178.33 L 79.25,177.67 L 79.25,176.33 L 80.58,176.33 L 81.25,177 L 82.58,179 L 84.58,183.67 L 85.92,186.33 L 87.25,189.67 L 87.25,191 L 87.25,191.67 L 87.92,192.33 L 89.25,190.33 L 92.58,185 L 97.92,178.33 L 101.92,173 L 103.25,171 L 101.92,171" fill="none" stroke="#6190e8" stroke-width="2"></path>  <path d="M 507.25,55.33 L 507.25,53.67 L 503.92,53 L 499.25,52.33 L 495.92,51.67 L 493.92,50.33 L 491.25,50.33 L 488.58,50.33 L 485.92,50.33 L 480.58,51.67 L 476.58,52.33 L 470.58,53.67 L 460.58,55.67 L 448.58,59 L 445.92,59.67 L 443.92,59.67 L 442.58,60.33 L 441.92,61 L 441.25,62.33 L 438.58,65 L 435.25,69 L 433.25,73 L 431.25,76.33 L 430.58,78.33 L 429.92,81.67 L 429.25,84.33 L 429.25,85.67 L 429.25,88.33 L 429.25,90.33 L 429.92,93 L 431.25,95.67 L 431.92,97.67 L 433.92,101 L 435.92,104.33 L 437.92,107 L 439.92,110.33 L 441.25,112.33 L 441.92,112.33 L 443.92,113.67 L 447.25,115 L 449.92,116.33 L 452.58,117 L 456.58,118.33 L 459.25,119 L 462.58,120.33 L 467.25,121 L 473.25,122.33 L 477.92,123 L 481.92,123 L 486.58,123 L 493.92,121.67 L 497.25,119.67 L 499.92,117.67 L 503.92,115.67 L 505.25,113.67 L 507.92,110.33 L 509.92,107 L 511.25,103.67 L 512.58,102.33 L 513.25,100.33 L 514.58,96.33 L 515.92,93 L 519.25,85.67 L 521.25,80.33 L 522.58,75.67 L 522.58,72.33 L 522.58,69 L 522.58,67 L 522.58,65 L 522.58,63.67 L 521.92,63 L 519.92,62.33 L 513.92,61" fill="none" stroke="#6190e8" stroke-width="2"></path><path d="M 109.25,74 L 109.25,72.33 L 107.92,71.67 L 104.58,70.33 L 103.25,69 L 97.92,68.33 L 95.92,68.33 L 89.92,68.33 L 85.25,68.33 L 84.58,68.33 L 83.25,68.33 L 81.25,68.33 L 80.58,68.33 L 79.25,68.33 L 77.25,68.33 L 75.25,69 L 73.92,69.67 L 71.25,70.33 L 68.58,73 L 67.25,75 L 65.25,77 L 63.25,79.67 L 61.25,81.67 L 60.58,82.33 L 59.25,85.67 L 57.92,88.33 L 56.58,91 L 55.92,94.33 L 55.92,95.67 L 54.58,99 L 54.58,100.33 L 54.58,101.67 L 54.58,103.67 L 54.58,105.67 L 55.25,107 L 56.58,110.33 L 57.92,113 L 59.25,117 L 60.58,119.67 L 61.25,121 L 62.58,122.33 L 63.92,123.67 L 65.25,125 L 65.92,125 L 67.25,125.67 L 68.58,125.67 L 70.58,127 L 72.58,127.67 L 73.92,127.67 L 75.25,127.67 L 77.25,128.33 L 77.92,128.33 L 80.58,128.33 L 83.25,129 L 86.58,129.67 L 89.92,129.67 L 93.25,129.67 L 95.92,129.67 L 97.92,129.67 L 100.58,129 L 102.58,127.67 L 103.25,127 L 104.58,126.33 L 106.58,125 L 107.25,123.67 L 107.92,123 L 108.58,121.67 L 109.25,120.33 L 110.58,119 L 111.92,116.33 L 113.92,115 L 114.58,113.67 L 115.92,111.67 L 116.58,109 L 117.92,107.67 L 118.58,105.67 L 119.92,102.33 L 121.92,97.67 L 123.92,93 L 124.58,91.67 L 124.58,91 L 124.58,88.33 L 123.25,87.67 L 121.92,87 L 120.58,86.33 L 119.92,85.67 L 119.25,85 L 117.92,84.33 L 116.58,83.67 L 115.25,83 L 113.92,81.67 L 112.58,79 L 111.92,77.67" fill="none" stroke="#6190e8" stroke-width="2"></path><path d="M 145.92,135.33 L 145.92,136.33 L 145.92,148.33 L 145.92,169.67 L 145.92,193.67 L 145.92,213.67 L 145.92,223 L 145.92,225 L 145.25,222.33 L 144.58,218.33 L 143.92,212.33" fill="none" stroke="#6190e8" stroke-width="2"></path><path d="M 145.25,138 L 145.25,139 L 143.92,141.67 L 138.58,150.33 L 133.25,158.33 L 128.58,164.33 L 125.92,169 L 126.58,167.67 L 127.25,165 L 128.58,161 L 131.92,153 L 135.25,146.33 L 136.58,143 L 138.58,141 L 139.25,140.33 L 140.58,140.33 L 143.92,144.33 L 147.92,151.67 L 151.92,159 L 155.92,163.67 L 156.58,165 L 157.92,165.67 L 158.58,165.67" fill="none" stroke="#6190e8" stroke-width="2"></path><path d="M 222.58,132 L 223.25,131.67 L 225.92,137.67 L 228.58,151.67 L 230.58,166.33 L 231.25,177.67 L 231.25,188.33 L 231.25,194.33 L 231.25,190.33" fill="none" stroke="#6190e8" stroke-width="2"></path><path d="M 218.58,115.33 L 218.58,115.67 L 217.92,117.67 L 217.25,120.33 L 213.92,127.67 L 205.92,144.33 L 200.58,152.33 L 197.25,157.67 L 196.58,159 L 196.58,159.67 L 197.92,157 L 202.58,150.33 L 208.58,141.67 L 213.92,135 L 218.58,129 L 219.25,127.67 L 219.92,127.67 L 223.92,131 L 227.92,136.33 L 231.92,144.33 L 235.25,151 L 237.92,156.33 L 238.58,158.33 L 238.58,159 L 239.25,159.67" fill="none" stroke="#6190e8" stroke-width="2"></path><path d="M 304.58,132.67 L 305.25,134.33 L 305.92,138.33 L 307.92,151 L 311.25,167.67 L 313.92,183.67 L 313.92,197.67 L 313.92,207 L 313.92,207.67 L 313.92,207 L 313.92,200.33 L 313.92,186.33" fill="none" stroke="#6190e8" stroke-width="2"></path><path d="M 307.92,145.33 L 306.58,145.67 L 305.25,147.67 L 303.92,149.67 L 299.92,156.33 L 296.58,162.33 L 295.25,165 L 295.92,165 L 299.92,159.67 L 305.25,153 L 309.25,147 L 313.25,143.67 L 313.92,142.33 L 316.58,143.67 L 322.58,153.67 L 327.92,160.33 L 330.58,165 L 331.25,166.33 L 331.92,167 L 334.58,167 L 341.25,167" fill="none" stroke="#6190e8" stroke-width="2"></path><path d="M 387.25,133.33 L 389.25,136.33 L 393.92,150.33 L 396.58,164.33 L 398.58,175.67 L 398.58,183 L 398.58,187 L 398.58,187.67 L 398.58,187 L 398.58,184.33 L 398.58,174.33 L 398.58,163.67" fill="none" stroke="#6190e8" stroke-width="2"></path><path d="M 398.58,136.67 L 397.92,135.67 L 395.92,137.67 L 391.92,143.67 L 385.92,150.33 L 383.25,155 L 382.58,155.67 L 382.58,154.33 L 383.92,148.33 L 385.92,143 L 389.25,138.33 L 390.58,136.33 L 391.25,136.33 L 392.58,136.33 L 393.25,137 L 395.92,140.33 L 399.92,145 L 401.25,147 L 401.25,148.33 L 401.25,149.67 L 400.58,153" fill="none" stroke="#6190e8" stroke-width="2"></path>    <path d="M 422.58,244.67 L 421.25,244.33 L 411.92,244.33 L 410.58,244.33 L 409.92,244.33 L 408.58,247 L 408.58,251 L 408.58,257 L 408.58,261.67 L 408.58,263 L 408.58,263.67 L 408.58,264.33 L 409.25,264.33 L 410.58,264.33 L 411.92,264.33 L 413.92,263.67 L 418.58,263.67 L 419.25,263.67 L 419.92,263.67 L 420.58,263.67 L 421.92,263.67 L 423.25,265.67 L 423.25,266.33 L 421.92,271 L 419.92,275 L 415.92,277 L 413.92,277.67 L 412.58,277.67" fill="none" stroke="#6190e8" stroke-width="2"></path><path d="M 489.25,247.33 L 489.92,247.67 L 490.58,250.33 L 490.58,254.33 L 491.25,257 L 491.92,257.67 L 491.92,259 L 491.92,261 L 491.92,263.67 L 491.92,265 L 491.92,267 L 491.92,267.67 L 491.92,269" fill="none" stroke="#6190e8" stroke-width="2"></path><path d="M 83.25,138 L 83.25,139 L 83.25,149.67 L 83.25,165.67 L 83.25,179 L 83.25,193.67 L 83.25,208.33 L 83.25,217 L 83.25,221.67 L 83.25,223.67 L 83.25,221" fill="none" stroke="#6190e8" stroke-width="2"></path><path d="M 84.58,138 L 84.58,139.67 L 84.58,144.33 L 84.58,165 L 84.58,181 L 84.58,197 L 84.58,211.67 L 84.58,223.67 L 84.58,235.67 L 84.58,245.67 L 84.58,252.33 L 84.58,257 L 84.58,260.33 L 84.58,261 L 84.58,259.67 L 84.58,256.33 L 84.58,253.67 L 84.58,245.67 L 84.58,237 L 84.58,229 L 85.25,219 L 85.25,211.67 L 85.25,205.67 L 85.25,199.67 L 85.25,193.67 L 85.25,188.33 L 85.25,182.33 L 85.25,175.67 L 85.25,167.67 L 85.25,159 L 85.25,151 L 85.25,143.67 L 85.25,137.67 L 85.25,135.67 L 85.25,137.67 L 83.92,141 L 80.58,147.67 L 75.92,155.67 L 70.58,162.33 L 68.58,165.67 L 68.58,166.33 L 69.92,165 L 70.58,162.33 L 72.58,159 L 73.92,153.67 L 76.58,147.67 L 79.25,143 L 81.92,139 L 84.58,136.33 L 85.92,134.33 L 86.58,133.67 L 87.92,133 L 88.58,133 L 89.25,133 L 91.25,133 L 93.25,134.33 L 94.58,135 L 96.58,139 L 99.92,145 L 101.25,153.67 L 102.58,160.33 L 102.58,164.33 L 104.58,169 L 104.58,169.67 L 102.58,169.67 L 99.25,169.67 L 95.92,169 L 92.58,169 L 87.92,169 L 83.92,169 L 79.25,169 L 76.58,169 L 75.25,169 L 74.58,169" fill="none" stroke="#6190e8" stroke-width="2"></path><path d="M 498.58,239.33 L 497.92,239 L 496.58,239 L 495.92,239 L 495.25,239 L 494.58,239 L 493.92,239 L 493.25,239 L 491.25,239 L 490.58,239.67 L 488.58,241 L 487.25,242.33 L 484.58,245 L 483.92,246.33 L 482.58,247.67 L 481.92,249 L 480.58,252.33 L 479.25,255.67 L 478.58,257 L 478.58,259 L 478.58,261 L 478.58,263 L 478.58,265 L 478.58,267.67 L 479.92,271.67 L 481.92,272.33 L 482.58,273.67 L 483.25,273.67 L 484.58,274.33 L 485.25,274.33 L 487.25,274.33 L 487.92,274.33 L 489.25,274.33 L 491.25,274.33 L 493.92,274.33 L 498.58,274.33 L 502.58,274.33 L 504.58,274.33 L 507.25,272.33 L 511.25,269.67 L 513.92,266.33 L 514.58,265.67 L 514.58,263 L 514.58,261 L 514.58,259.67 L 514.58,257.67 L 513.92,255.67 L 512.58,254.33 L 509.92,253.67 L 508.58,253 L 506.58,252.33 L 505.25,251.67 L 504.58,250.33 L 503.25,249.67 L 502.58,249 L 501.92,249 L 501.25,248.33 L 499.25,248.33" fill="none" stroke="#6190e8" stroke-width="2"></path><path d="M 84.58,335.33 L 85.25,339 L 85.92,343 L 86.58,345.67 L 87.25,346.33 L 87.25,349.67 L 87.25,353.67 L 87.25,357 L 87.25,357.67 L 87.92,358.33" fill="none" stroke="#6190e8" stroke-width="2"></path><path d="M 499.25,326 L 499.92,327.67 L 499.92,333.67 L 499.92,341 L 499.92,347 L 499.92,351.67 L 499.92,357 L 499.92,361 L 499.92,362.33 L 500.58,362.33 L 501.92,359.67" fill="none" stroke="#6190e8" stroke-width="2"></path><path d="M 517.92,334.67 L 517.25,334.33 L 514.58,336.33 L 512.58,339.67 L 512.58,343 L 512.58,347 L 513.92,351.67 L 515.25,355.67 L 516.58,357.67 L 517.25,357.67 L 519.25,356.33 L 520.58,354.33 L 523.92,350.33 L 526.58,343.67 L 527.25,336.33 L 527.25,332.33 L 527.25,330.33 L 527.25,329.67 L 526.58,329.67 L 520.58,329 L 513.25,327 L 512.58,327 L 511.92,327 L 511.25,327 L 511.25,327.67 L 511.92,328.33" fill="none" stroke="#6190e8" stroke-width="2"></path><path d="M 444.58,334.67 L 443.25,334.33 L 433.92,334.33 L 412.58,335.67 L 393.92,337.67 L 387.25,339 L 386.58,339.67 L 386.58,340.33 L 387.25,340.33 L 388.58,341 L 388.58,341.67 L 390.58,343 L 391.92,344.33 L 393.25,347.67 L 393.92,349.67 L 394.58,351 L 395.25,351 L 397.25,350.33 L 402.58,348.33 L 412.58,344.33 L 421.25,343 L 425.25,343 L 428.58,343 L 429.25,343 L 429.92,343 L 429.92,344.33 L 429.25,349 L 423.25,353.67 L 415.25,357 L 406.58,359 L 401.92,359.67 L 400.58,359.67" fill="none" stroke="#6190e8" stroke-width="2"></path><path d="M 142.58,345.33 L 149.25,345 L 157.25,345 L 161.25,345 L 162.58,345 L 163.92,345 L 164.58,345.67 L 164.58,346.33 L 164.58,349 L 164.58,356.33 L 164.58,365.67 L 163.25,371 L 163.25,373 L 163.25,373.67 L 163.25,374.33 L 163.25,375 L 163.92,375 L 167.25,375 L 182.58,373.67 L 192.58,371.67" fill="none" stroke="#6190e8" stroke-width="2"></path><path d="M 217.92,344 L 215.25,344.33 L 211.25,346.33 L 210.58,347 L 210.58,349 L 212.58,350.33 L 215.92,352.33 L 220.58,355 L 223.25,356.33 L 223.92,357 L 223.92,358.33 L 221.92,362.33 L 218.58,367 L 213.92,371 L 211.92,371.67 L 210.58,371.67 L 209.25,369.67 L 209.25,365.67 L 212.58,354.33 L 219.25,343.67 L 222.58,338.33 L 223.25,337" fill="none" stroke="#6190e8" stroke-width="2"></path><path d="M 288.58,332.67 L 285.25,332.33 L 279.92,333 L 275.25,334.33 L 271.92,337 L 271.25,340.33 L 271.25,345.67 L 272.58,350.33 L 275.25,352.33 L 277.25,353 L 283.25,353 L 290.58,349 L 293.25,344.33 L 293.92,339 L 293.92,335.67 L 293.92,333 L 293.92,332.33 L 293.92,331.67 L 293.92,334.33 L 293.92,338.33 L 293.92,354.33 L 293.92,363 L 293.92,367.67 L 293.92,369 L 293.92,369.67 L 291.92,369.67 L 284.58,367" fill="none" stroke="#6190e8" stroke-width="2"></path><path d="M 168.58,355.33 L 167.92,355 L 167.25,357.67 L 167.25,363.67 L 168.58,371 L 169.25,380.33 L 169.92,385 L 171.25,388.33 L 171.25,389 L 171.92,390.33 L 171.92,391 L 172.58,392.33 L 172.58,393 L 171.92,393 L 171.25,392.33" fill="none" stroke="#6190e8" stroke-width="2"></path><path d="M 155.92,382 L 155.92,381 L 159.25,379.67 L 164.58,378.33 L 183.25,373.67 L 189.92,372.33 L 191.25,371.67" fill="none" stroke="#6190e8" stroke-width="2"></path><path d="M 91.25,373.33 L 91.92,380.33 L 91.92,391.67 L 91.92,405 L 91.92,414.33 L 91.92,417.67 L 91.92,419 L 91.92,419.67 L 91.25,419.67 L 89.92,419.67 L 89.25,419" fill="none" stroke="#6190e8" stroke-width="2"></path><path d="M 81.25,410 L 81.25,409 L 83.25,410.33 L 84.58,414.33 L 87.92,419.67 L 89.25,426.33 L 90.58,432.33 L 91.25,437 L 91.92,438.33 L 92.58,439 L 93.92,437 L 95.92,435.67 L 99.25,430.33 L 105.25,421.67 L 108.58,416.33 L 111.25,412.33 L 111.92,412.33 L 112.58,413.67" fill="none" stroke="#6190e8" stroke-width="2"></path><path d="M 87.92,289.33 L 87.25,288.33 L 84.58,289.67 L 81.92,291 L 79.92,293 L 78.58,295 L 78.58,297.67 L 78.58,301 L 78.58,303.67 L 78.58,306.33 L 79.25,307.67 L 79.25,308.33 L 80.58,308.33 L 82.58,308.33 L 85.25,307 L 87.25,305.67 L 88.58,305 L 88.58,304.33 L 89.92,302.33 L 89.92,301.67 L 91.25,299 L 92.58,296.33 L 93.25,295 L 93.25,293.67 L 93.92,292.33 L 94.58,291 L 94.58,290.33 L 94.58,289.67 L 93.92,288.33 L 93.25,288.33 L 91.92,287 L 91.25,285.67 L 89.92,285 L 89.25,285 L 88.58,285 L 88.58,285.67" fill="none" stroke="#6190e8" stroke-width="2"></path></svg>  